#!OML:ASF H:\LiuWeirdWalks\Patient Classification 1\Patient 1\Session 1\male.ASF
:FULLY-SPECIFIED
:DEGREES
555
root 1.59532 18.1006 -5.06763 7.27823 2.64837 -14.2515
lowerback 14.0361 -2.07486 -6.65822
upperback 3.08948 -4.021 -6.45653
thorax -4.60728 -1.91609 -2.3602
lowerneck -19.6583 1.74311 8.114
upperneck 11.5492 -0.628726 4.83445
head 6.76745 0.520465 0.214396
rclavicle -4.77083e-015 5.08889e-014
rhumerus -17.0772 -34.4462 12.9597
rradius 33.4978
rwrist -7.53522
rhand -12.436 1.64645
rfingers 7.12502
rthumb 13.6368 -27.8868
lclavicle -4.77083e-015 5.08889e-014
lhumerus -26.8609 35.7607 41.4329
lradius 31.7041
lwrist 9.52941
lhand -20.3937 -1.27743
lfingers 7.12502
lthumb 5.95972 28.6188
rfemur -1.99596 -1.81595 25.054
rtibia 40.9535
rfoot 23.1801 -1.32161
rtoes -13.438
lfemur -25.9005 2.92823 -2.16607
ltibia 34.5162
lfoot -11.547 8.9363
ltoes -5.64829
556
root 1.6426 18.1062 -5.01135 7.12726 2.67917 -13.7552
lowerback 14.0321 -2.00784 -6.77066
upperback 3.1016 -3.94183 -6.35734
thorax -4.57717 -1.87613 -2.20644
lowerneck -19.7025 1.71903 8.11997
upperneck 11.6216 -0.643491 4.65459
head 6.79597 0.50093 0.153588
rclavicle -6.36111e-015 4.13472e-014
rhumerus -17.3496 -34.3237 12.6114
rradius 33.4807
rwrist -7.85776
rhand -12.5769 2.77236
rfingers 7.12502
rthumb 13.501 -26.77
lclavicle -6.36111e-015 4.13472e-014
lhumerus -26.7511 35.7329 40.8378
lradius 31.7117
lwrist 9.66978
lhand -20.3761 -1.22256
lfingers 7.12502
lthumb 5.97674 28.6731
rfemur -2.78025 -1.69775 24.5223
rtibia 42.6677
rfoot 23.5085 -1.47379
rtoes -11.3366
lfemur -25.4062 2.95931 -2.8986
ltibia 34.2662
lfoot -11.6736 8.77123
ltoes -5.70975
557
root 1.68897 18.112 -4.95483 6.96797 2.70338 -13.2737
lowerback 14.0222 -1.93997 -6.87318
upperback 3.12035 -3.85848 -6.25068
thorax -4.53747 -1.83462 -2.05131
lowerneck -19.7522 1.69028 8.10558
upperneck 11.7244 -0.66474 4.49508
head 6.83558 0.480553 0.101961
rclavicle 1.11319e-014 -3.81667e-014
rhumerus -17.6324 -34.1026 12.1945
rradius 33.357
rwrist -7.44352
rhand -12.6912 4.3056
rfingers 7.12502
rthumb 13.3908 -25.244
lclavicle 1.11319e-014 -3.81667e-014
lhumerus -26.6271 35.7191 40.2342
lradius 31.7286
lwrist 9.80143
lhand -20.3521 -1.18803
lfingers 7.12502
lthumb 5.99994 28.707
rfemur -3.56345 -1.61442 24.0147
rtibia 44.3762
rfoot 23.5796 -1.69946
rtoes -9.03317
lfemur -24.8869 3.0159 -3.60854
ltibia 33.9977
lfoot -11.7859 8.59377
ltoes -5.79578
558
root 1.7346 18.1177 -4.89841 6.80171 2.72771 -12.8071
lowerback 14.0114 -1.87358 -6.96166
upperback 3.14089 -3.77463 -6.1393
thorax -4.49663 -1.79319 -1.89911
lowerneck -19.7944 1.64768 8.05227
upperneck 11.8563 -0.701716 4.37745
head 6.88373 0.455724 0.0682632
rclavicle 7.95139e-015 1.90833e-014
rhumerus -17.9194 -33.813 11.7171
rradius 33.2008
rwrist -6.74127
rhand -12.7956 5.63647
rfingers 7.12502
rthumb 13.2902 -23.9198
lclavicle 7.95139e-015 1.90833e-014
lhumerus -26.4983 35.6924 39.6175
lradius 31.7493
lwrist 9.90855
lhand -20.317 -1.17216
lfingers 7.12502
lthumb 6.03377 28.7219
rfemur -4.3396 -1.58307 23.5278
rtibia 46.067
rfoot 23.3243 -2.06297
rtoes -6.74636
lfemur -24.3506 3.095 -4.29707
ltibia 33.7155
lfoot -11.8873 8.40702
ltoes -5.91543
559
root 1.77945 18.1231 -4.84175 6.6297 2.75358 -12.342
lowerback 13.9967 -1.80783 -7.04645
upperback 3.1641 -3.69044 -6.02805
thorax -4.4516 -1.75188 -1.74935
lowerneck -19.8163 1.60645 8.01698
upperneck 11.9777 -0.737131 4.25173
head 6.9251 0.430851 0.028995
rclavicle -2.06736e-014 -9.54166e-015
rhumerus -18.2136 -33.5468 11.2103
rradius 33.0596
rwrist -6.18607
rhand -12.7335 7.1099
rfingers 7.12502
rthumb 13.3501 -22.4424
lclavicle -2.06736e-014 -9.54166e-015
lhumerus -26.3409 35.6647 38.9977
lradius 31.7591
lwrist 9.9574
lhand -20.2971 -1.12335
lfingers 7.12502
lthumb 6.05295 28.7702
rfemur -5.10189 -1.61037 23.0457
rtibia 47.7256
rfoot 22.6605 -2.62227
rtoes -4.95473
lfemur -23.7991 3.18976 -4.97866
ltibia 33.4227
lfoot -11.983 8.21633
ltoes -6.07423
560
root 1.82349 18.1281 -4.78463 6.44959 2.77675 -11.8921
lowerback 13.9831 -1.74145 -7.11993
upperback 3.18531 -3.60389 -5.91
thorax -4.41023 -1.70953 -1.599
lowerneck -19.8197 1.56168 7.97454
upperneck 12.1178 -0.774493 4.12794
head 6.96957 0.405315 -0.00890841
rclavicle -3.65764e-014 -4.45278e-014
rhumerus -18.5269 -33.1532 10.64
rradius 32.7442
rwrist -4.63782
rhand -12.5753 8.57264
rfingers 7.12502
rthumb 13.5026 -20.9696
lclavicle -3.65764e-014 -4.45278e-014
lhumerus -26.1821 35.6173 38.3707
lradius 31.7661
lwrist 9.9581
lhand -20.2847 -1.07585
lfingers 7.12502
lthumb 6.06497 28.8173
rfemur -5.84334 -1.68898 22.5854
rtibia 49.3331
rfoot 21.5969 -3.40299
rtoes -3.7847
lfemur -23.2297 3.30056 -5.63628
ltibia 33.1203
lfoot -12.0769 8.02237
ltoes -6.23163
561
root 1.8673 18.133 -4.72715 6.26603 2.80594 -11.4371
lowerback 13.9652 -1.67656 -7.19511
upperback 3.20535 -3.51913 -5.791
thorax -4.36814 -1.66812 -1.44655
lowerneck -19.7834 1.53526 8.00416
upperneck 12.2017 -0.786822 3.9339
head 6.98858 0.385572 -0.0787576
rclavicle 2.06736e-014 0
rhumerus -18.838 -32.8652 10.0827
rradius 32.5948
rwrist -4.12515
rhand -12.2504 9.17181
rfingers 7.12502
rthumb 13.8157 -20.3494
lclavicle 2.06736e-014 0
lhumerus -26.015 35.5407 37.7466
lradius 31.7811
lwrist 9.94375
lhand -20.2731 -1.01285
lfingers 7.12502
lthumb 6.07614 28.88
rfemur -6.56543 -1.83457 22.1172
rtibia 50.8679
rfoot 20.1787 -4.33787
rtoes -3.20684
lfemur -22.6482 3.40324 -6.29503
ltibia 32.8071
lfoot -12.1649 7.83801
ltoes -6.36797
562
root 1.91037 18.138 -4.6694 6.08344 2.84175 -10.9881
lowerback 13.9488 -1.61586 -7.2699
upperback 3.22225 -3.43986 -5.66329
thorax -4.33005 -1.62931 -1.28408
lowerneck -19.7553 1.51226 8.03374
upperneck 12.2827 -0.793893 3.73334
head 7.00802 0.367671 -0.150133
rclavicle -2.94201e-014 7.95139e-014
rhumerus -19.1389 -32.6739 9.52104
rradius 32.5314
rwrist -4.18427
rhand -11.8781 9.75439
rfingers 7.12502
rthumb 14.1745 -19.742
lclavicle -2.94201e-014 7.95139e-014
lhumerus -25.8413 35.4554 37.1259
lradius 31.7994
lwrist 9.92706
lhand -20.2685 -0.958888
lfingers 7.12502
lthumb 6.08063 28.9339
rfemur -7.27509 -2.03254 21.6583
rtibia 52.3067
rfoot 18.5321 -5.37202
rtoes -3.08816
lfemur -22.0616 3.49285 -6.93845
ltibia 32.4816
lfoot -12.2504 7.65693
ltoes -6.46441
563
root 1.95267 18.1429 -4.61135 5.9069 2.88911 -10.5467
lowerback 13.922 -1.55902 -7.3439
upperback 3.23913 -3.36388 -5.52597
thorax -4.28623 -1.59234 -1.1117
lowerneck -19.7324 1.4903 8.05498
upperneck 12.3668 -0.79792 3.53378
head 7.0294 0.351058 -0.219538
rclavicle -3.10104e-014 6.36111e-015
rhumerus -19.4361 -32.5422 8.94821
rradius 32.4433
rwrist -4.20032
rhand -11.7978 9.96934
rfingers 7.12502
rthumb 14.2518 -19.5216
lclavicle -3.10104e-014 6.36111e-015
lhumerus -25.6512 35.3837 36.5175
lradius 31.8237
lwrist 9.91345
lhand -20.2823 -0.896607
lfingers 7.12502
lthumb 6.06728 28.9965
rfemur -7.9775 -2.27191 21.2118
rtibia 53.6272
rfoot 16.7996 -6.41191
rtoes -3.17528
lfemur -21.4775 3.57123 -7.56675
ltibia 32.1445
lfoot -12.323 7.47926
ltoes -6.5006
